<svg class="d-block w-100 h-100" fill="#ffffff" aria-hidden="true" focusable="false" role="img" xmlns="http://www.w3.org/2000/svg" viewBox="0 0 100 100"><path d="M3.6,18.4h92.9c2,0,3.6-1.8,3.6-4.1V4.1c0-2.3-1.6-4.1-3.6-4.1H3.6C1.6,0,0,1.8,0,4.1v10.2C0,16.5,1.6,18.4,3.6,18.4z M3.6,59.2h92.9c2,0,3.6-1.8,3.6-4.1V44.9c0-2.3-1.6-4.1-3.6-4.1H3.6c-2,0-3.6,1.8-3.6,4.1v10.2C0,57.4,1.6,59.2,3.6,59.2z M3.6,100 h92.9c2,0,3.6-1.8,3.6-4.1V85.7c0-2.3-1.6-4.1-3.6-4.1H3.6c-2,0-3.6,1.8-3.6,4.1v10.2C0,98.2,1.6,100,3.6,100z"/></svg>							
