<svg xmlns="http://www.w3.org/2000/svg" width="30" height="30" viewBox="0 0 30 30"><g><g><g/><g><path fill="#fff" d="M30 15c0 8.283-6.717 15-15 15-8.283 0-15-6.717-15-15C0 6.717 6.717 0 15 0c8.283 0 15 6.717 15 15zm-19.359-3.315H6.988v10.99h3.653zm-1.826-1.5c1.274 0 2.067-.845 2.067-1.9-.024-1.078-.793-1.898-2.043-1.898s-2.067.82-2.067 1.899c0 1.054.793 1.898 2.019 1.898zm14.999 6.189c0-3.376-1.802-4.947-4.206-4.947-1.938 0-2.807 1.065-3.292 1.814v-1.556h-3.653c.048 1.031 0 10.99 0 10.99h3.653v-6.137c0-.328.023-.657.12-.891.264-.657.865-1.336 1.874-1.336 1.322 0 1.851 1.007 1.851 2.485v5.88h3.653z"/></g></g></g></svg>