<svg xmlns="http://www.w3.org/2000/svg" width="24" height="24" viewBox="0 0 24 24"><g><g><g/><g><path fill="#797979" d="M22.151 15.08a.598.598 0 0 0-.598.598v5.307a1.795 1.795 0 0 1-1.793 1.793H2.99a1.795 1.795 0 0 1-1.794-1.793V5.409A1.795 1.795 0 0 1 2.99 3.615h5.307a.598.598 0 1 0 0-1.195H2.989A2.992 2.992 0 0 0 0 5.409v15.576a2.992 2.992 0 0 0 2.989 2.989H19.76a2.992 2.992 0 0 0 2.989-2.99v-5.306a.598.598 0 0 0-.598-.598z"/></g><g><path fill="#797979" d="M23.217 1.58a2.693 2.693 0 0 1 0 3.803L12.553 16.047a.598.598 0 0 1-.263.154l-5.063 1.402a.598.598 0 0 1-.735-.736l1.402-5.062c.028-.1.08-.19.154-.263L18.71.878a2.69 2.69 0 0 1 3.804 0zM12.164 14.744l8.728-8.728-2.815-2.815L9.35 11.93zm-4.238 1.424l3.11-.862-2.248-2.249zM22.37 4.538a1.496 1.496 0 0 0 0-2.114l-.701-.7a1.494 1.494 0 0 0-2.113 0l-.634.633 2.815 2.815z"/></g></g></g></svg>