<svg xmlns="http://www.w3.org/2000/svg" width="30" height="30" viewBox="0 0 30 30"><g><g><g><path fill="#0b0b0b" d="M0 15C0 6.716 6.716 0 15 0c8.284 0 15 6.716 15 15 0 8.284-6.716 15-15 15-8.284 0-15-6.716-15-15z"/></g><g><g/><g><g><g><path fill="#fff" d="M20.895 17.218c-.864 0-1.71-.135-2.511-.4-.392-.134-.836-.03-1.093.232l-1.59 1.2c-1.823-.973-2.99-2.14-3.95-3.95l1.167-1.552c.294-.294.4-.724.274-1.127a8 8 0 0 1-.403-2.516c0-.61-.495-1.105-1.105-1.105H9.105C8.495 8 8 8.496 8 9.105 8 16.215 13.785 22 20.895 22c.61 0 1.105-.496 1.105-1.105v-2.572c0-.61-.496-1.105-1.105-1.105z"/></g></g></g></g></g></g></svg>