<svg xmlns="http://www.w3.org/2000/svg" width="110" height="94" viewBox="0 0 110 94"><g><g><g><path fill="#efefef" d="M0 0h110v74L55 94 0 74z"/></g><g><g/><g><path d="M54.563 18v21.563H33V23.155A5.156 5.156 0 0 1 38.156 18zm-7.97 12.656a1.407 1.407 0 0 0 0-2.812H44.72v-1.875a1.407 1.407 0 0 0-2.813 0v1.875h-1.875a1.407 1.407 0 0 0 0 2.812h1.875v1.875a1.407 1.407 0 0 0 2.813 0v-1.875z"/></g><g><path d="M54.563 41.44v21.563H38.156A5.156 5.156 0 0 1 33 57.846V41.44zm-8.79 10.78l1.35-1.35a1.407 1.407 0 1 0-1.99-1.99l-1.35 1.35-1.35-1.35a1.407 1.407 0 1 0-1.99 1.99l1.35 1.35-1.35 1.35a1.407 1.407 0 0 0 1.988 1.989l1.35-1.35 1.35 1.35c.274.275.634.412.994.412s.72-.137.994-.41c.55-.55.55-1.44 0-1.99z"/></g><g><path d="M72.846 18a5.156 5.156 0 0 1 5.156 5.156v16.407H56.44V18zm-.937 12.188a1.407 1.407 0 0 0 0-2.813H63.47a1.407 1.407 0 0 0 0 2.813z"/></g><g><path d="M78.002 41.44v16.406a5.156 5.156 0 0 1-5.156 5.157H56.44V41.44zm-6.562 15a1.407 1.407 0 0 0 0-2.813h-8.437a1.407 1.407 0 0 0 0 2.813zm0-5.625a1.407 1.407 0 0 0 0-2.812h-8.437a1.407 1.407 0 0 0 0 2.812z"/></g></g></g></g></svg>