<svg xmlns="http://www.w3.org/2000/svg" width="110" height="94" viewBox="0 0 110 94"><g><g><g><path fill="#efefef" d="M0 0h110v74L55 94 0 74z"/></g><g><g/><g><g><path d="M55.14 35.54h1.525v6.102H55.14z"/></g><g><path d="M52.09 34.02h1.525v7.627H52.09z"/></g><g><path d="M58.19 34.02h1.525v7.627H58.19z"/></g><g><path d="M65.958 27.999l-1.155.328.194-1.185a4.58 4.58 0 0 0-4.514-5.331c-2.02 0-3.78 1.347-4.364 3.225a3.044 3.044 0 0 1 2.075 2.877H56.67a1.527 1.527 0 0 0-3.05 0h-1.526a3.054 3.054 0 0 1 2.467-2.993 6.104 6.104 0 0 1 2.216-3.364 5.31 5.31 0 0 0-4.683-2.796 5.345 5.345 0 0 0-5.17 6.678l.254.979-1.205-.03c-1.635 0-3.032 1.397-3.032 3.051a3.054 3.054 0 0 0 3.05 3.05h4.577c.841 0 1.526-.683 1.526-1.525h1.525c0 .559-.162 1.075-.424 1.526h3.125a4.55 4.55 0 0 1-1.176-3.051h1.526a3.054 3.054 0 0 0 3.05 3.05h1.175a4.553 4.553 0 0 1-1.174-3.05h1.525a3.054 3.054 0 0 0 3.05 3.05h2.158c1.24 0 2.299-.904 2.408-2.06a2.27 2.27 0 0 0-.584-1.766 2.33 2.33 0 0 0-2.32-.663z"/></g><g><path d="M44.714 43.17H64.29v3.05h-4.576v1.526h4.576v1.526h-3.05v1.525h3.05v1.526h-4.576v1.525h4.576v6.864A2.29 2.29 0 0 1 62.002 63H49.8a2.29 2.29 0 0 1-2.288-2.288V57.45c.225.13.483.211.763.211a1.525 1.525 0 1 0 0-3.05c-.28 0-.538.08-.763.212v-2.43c.538.105.898.322 1.316.58.668.41 1.424.875 2.879.875s2.21-.465 2.878-.876c.59-.363 1.056-.65 2.08-.65v-1.525c-1.456 0-2.212.465-2.88.876-.589.363-1.055.65-2.078.65-1.024 0-1.49-.287-2.08-.65-.538-.331-1.14-.694-2.115-.823v-3.104c0-1.193-.57-2.334-1.526-3.05l-1.424-1.07a.254.254 0 0 1 .153-.457zm11.187 14.491a1.525 1.525 0 1 0-.001 3.05 1.525 1.525 0 0 0 0-3.05zm-6.102-10.677a1.525 1.525 0 1 0 3.05 0 1.525 1.525 0 0 0-3.05 0z"/></g><g><path d="M33.85 49.275h7.504a5.369 5.369 0 0 0-.421-1.525h-6.661a5.344 5.344 0 0 0-.422 1.525z"/></g><g><path d="M39.96 59.947c-.662-.77-1.488-1.436-2.36-2.097-.873.66-1.698 1.327-2.36 2.097z"/></g><g><path d="M37.601 44.12c-.87.66-1.69 1.329-2.351 2.097h4.703c-.661-.768-1.48-1.437-2.352-2.097z"/></g><g><path d="M35.24 40.12c.662.77 1.487 1.436 2.36 2.097.872-.66 1.698-1.327 2.36-2.097z"/></g><g><path d="M34.254 61.47a5.339 5.339 0 0 0-.424 1.525h7.536a5.363 5.363 0 0 0-.424-1.525z"/></g><g><path d="M34.272 52.325h6.66c.206-.463.352-.967.422-1.525H33.85c.07.558.216 1.062.422 1.525z"/></g><g><path d="M34.254 38.595h6.688c.205-.463.355-.965.424-1.525H33.83c.069.56.219 1.062.424 1.525z"/></g><g><path d="M37.601 55.947c.871-.66 1.69-1.329 2.352-2.097H35.25c.661.768 1.48 1.437 2.351 2.097z"/></g><g><path d="M71.85 40.12c.662.77 1.488 1.436 2.36 2.097.872-.66 1.698-1.327 2.36-2.097z"/></g><g><path d="M74.211 55.947c.871-.66 1.69-1.329 2.352-2.097H71.86c.661.768 1.48 1.437 2.351 2.097z"/></g><g><path d="M77.542 47.75h-6.66a5.344 5.344 0 0 0-.422 1.525h7.504a5.37 5.37 0 0 0-.422-1.525z"/></g><g><path d="M74.211 44.12c-.87.659-1.69 1.329-2.351 2.097h4.703c-.661-.768-1.48-1.437-2.352-2.097z"/></g><g><path d="M77.964 50.8H70.46c.07.558.216 1.062.422 1.525h6.66a5.32 5.32 0 0 0 .422-1.525z"/></g><g><path d="M70.864 61.47a5.339 5.339 0 0 0-.424 1.525h7.536a5.363 5.363 0 0 0-.424-1.525z"/></g><g><path d="M76.57 59.947c-.662-.77-1.488-1.436-2.36-2.097-.873.66-1.698 1.327-2.36 2.097z"/></g><g><path d="M77.552 38.595c.205-.463.355-.965.424-1.525H70.44c.07.56.219 1.062.424 1.525z"/></g><g><path d="M34.545 28.68a1.525 1.525 0 1 0 0-3.05 1.525 1.525 0 0 0 0 3.05z"/></g><g><path d="M74.205 24.1a1.525 1.525 0 1 0 0-3.05 1.525 1.525 0 0 0 0 3.05z"/></g><g><path d="M40.648 22.576a2.288 2.288 0 1 0 0-4.576 2.288 2.288 0 0 0 0 4.576z"/></g></g></g></g></g></svg>