<svg xmlns="http://www.w3.org/2000/svg" width="110" height="94" viewBox="0 0 110 94"><g><g><g><path fill="#efefef" d="M0 0h110v74L55 94 0 74z"/></g><g><g/><g><path d="M54.154 49.05h-.03a1.624 1.624 0 0 0-1.17 2.752l.565.585 2.34-2.255-.564-.585a1.617 1.617 0 0 0-1.141-.497z"/></g><g><path d="M39.5 48.23v3.366c0 1.258.744 2.32 1.625 2.32h1.625c.88 0 1.624-1.062 1.624-2.32V48.23H42.75v4.062h-1.625V48.23z"/></g><g><path d="M52.5 57.283h3.482L52.5 53.67z"/></g><g><path d="M45.998 48.23v3.366c0 2.175-1.457 3.945-3.25 3.945h-1.624c-1.792 0-3.25-1.77-3.25-3.945V48.23A4.879 4.879 0 0 0 33 53.104v4.875h17.873v-4.875a4.879 4.879 0 0 0-4.875-4.874z"/></g><g><path d="M62.9 61.398l2.367.838-.75-2.396z"/></g><g><path d="M54.64 53.555l2.34-2.255 1.127 1.17-2.34 2.255z"/></g><g><path d="M73.62 55.735l3.034-3.325H73.62z"/></g><g><path d="M75.393 29.895l2.288 1.321v.732l-1.306 2.262-2.616-1.51-.438.39a6.849 6.849 0 0 1-2.396 1.386l-.555.186v3.015h-3.25v-3.015l-.556-.186a6.849 6.849 0 0 1-2.396-1.387l-.437-.39-2.616 1.511-1.625-2.814 2.606-1.505-.117-.574a6.976 6.976 0 0 1 0-2.777l.117-.574-2.606-1.505 1.625-2.814 2.616 1.51.437-.388a6.845 6.845 0 0 1 2.396-1.388l.556-.185V18.18h3.25v3.016l.555.185c.885.295 1.7.767 2.397 1.388l.437.388 2.616-1.51L78 24.461l-2.612 1.508.117.574c.192.914.194 1.859.006 2.774zM73.62 27.93a4.874 4.874 0 1 0-9.749 0 4.874 4.874 0 0 0 9.75 0z"/></g><g><path d="M56.9 55.895l2.34-2.255 4.51 4.68-2.34 2.254z"/></g><g><path d="M37.062 62.86h9.749c1.963 0 4.062-.854 4.062-3.25H33c0 2.396 2.098 3.25 4.062 3.25z"/></g><g><path d="M77.2 29.058l.48.277v-.595h-.46c-.009.106-.006.212-.02.318z"/></g><g><path d="M68.744 24.67a3.25 3.25 0 0 0-3.134 2.437h6.269a3.25 3.25 0 0 0-3.135-2.437z"/></g><g><path d="M76.969 36.421l.71-1.232v15.59h-5.686v6.499h-6.986l-5.165-5.356-3.382-3.51a3.239 3.239 0 0 0-5.25.829 6.487 6.487 0 0 0-5.214-2.636h-8.123c-.272.002-.543.02-.813.056V28.73h23.206c.01.106.007.212.021.318l-3.02 1.742 3.25 5.629 3.027-1.748a8.457 8.457 0 0 0 1.95 1.13v3.493h6.499V35.8a8.44 8.44 0 0 0 1.95-1.126zm-33.41 6.934h-1.624v1.626h1.624zm0-3.249h-1.624v1.625h1.624zm0-3.25h-1.624v1.625h1.624zm0-3.25h-1.624v1.626h1.624zm3.25 0h-1.625v1.626h1.625zm3.25 0h-1.625v1.626h1.624zm3.25 1.625v-1.624h-1.626v1.624zm.811 8.124h-1.625v1.626h1.625zm2.438-9.748h-1.625v1.625h1.625zm3.25 13.81h-1.626v1.625h1.625zm3.249 0h-1.625v1.625h1.625zm3.25 0H64.68v1.625h1.625zm3.249 0H67.93v1.625h1.625zm0-3.25H67.93v1.626h1.625zm0-3.249H67.93v1.625h1.625z"/></g><g><path d="M68.744 31.177a3.249 3.249 0 0 0 3.134-2.437H65.61a3.25 3.25 0 0 0 3.134 2.437z"/></g></g></g></g></svg>