<svg xmlns="http://www.w3.org/2000/svg" width="110" height="94" viewBox="0 0 110 94"><g><g><g><path fill="#efefef" d="M0 0h110v74L55 94 0 74z"/></g><g><g/><g><path d="M40.967 35.932l.379.219v2.403l-1.725.43 4 2.335-.028 1.402-.062.215 2.367-.526v-.562c0-1.02.411-1.954 1.086-2.644l-2.603-.65-.003-2.401.38-.22a3.808 3.808 0 0 0 1.898-3.282v-1.326c0-2.135-1.649-3.921-3.676-3.982a3.746 3.746 0 0 0-2.758 1.068 3.763 3.763 0 0 0-1.152 2.723v1.517c0 1.346.727 2.604 1.897 3.281z"/></g><g><path d="M46.624 27.465a9.895 9.895 0 0 1 8.38-4.672c3.405 0 6.565 1.785 8.353 4.627.03-.03.057-.064.088-.094a5.289 5.289 0 0 1 1.601-1.065l.86-2.014-2.42-2.422-2.133 1.389-.409-.25A11.32 11.32 0 0 0 57.66 21.6l-.468-.113L56.665 19h-3.322l-.526 2.488-.467.112a11.331 11.331 0 0 0-3.285 1.362l-.408.25-2.133-1.388-2.424 2.424.851 2.03a5.366 5.366 0 0 1 1.673 1.187z"/></g><g><path d="M33 36.45v13.867l3.256 1.085 2.753-11.011z"/></g><g><path d="M64.108 37.008a5.326 5.326 0 0 1-2.276-4.353v-1.517c0-.836.196-1.638.557-2.363a8.384 8.384 0 0 0-7.385-4.465 8.37 8.37 0 0 0-7.416 4.527c.374.751.589 1.599.589 2.492v1.326a5.327 5.327 0 0 1-2.277 4.353v.364l3.035.76 3.035-.76v-.364a5.326 5.326 0 0 1-2.276-4.353v-1.517c0-1.45.573-2.803 1.613-3.812a5.275 5.275 0 0 1 3.86-1.497c2.838.086 5.148 2.553 5.148 5.5v1.326a5.327 5.327 0 0 1-2.277 4.353v.364l3.035.76 3.035-.76z"/></g><g><path d="M42.105 42.199l-1.73-1.009L37.7 51.887l1.493.497h.064l2.848-9.968z"/></g><g><path d="M49.134 39.64a2.274 2.274 0 0 0-1.724 2.208v.224l.435-.096a9.369 9.369 0 0 1 4.86.221l3.435 1.098c.38.014.759.056 1.125.161l4.665 1.333h.465l.187-.099v-2.842c0-1.046-.709-1.955-1.723-2.209l-4.345-1.085-.003-2.401.38-.22a3.808 3.808 0 0 0 1.898-3.282v-1.326c0-2.135-1.649-3.921-3.676-3.982a3.75 3.75 0 0 0-2.758 1.068 3.763 3.763 0 0 0-1.152 2.723v1.517c0 1.346.727 2.604 1.897 3.281l.379.219v2.403z"/></g><g><path d="M63.348 31.134v1.517c0 1.346.727 2.604 1.897 3.281l.379.219v2.403l-2.604.65a3.777 3.777 0 0 1 1.086 2.644v2.043l8.343-4.39-3.79-.947-.003-2.401.38-.22a3.808 3.808 0 0 0 1.898-3.282v-1.326c0-2.135-1.65-3.921-3.676-3.982a3.743 3.743 0 0 0-2.759 1.068 3.763 3.763 0 0 0-1.151 2.723z"/></g><g><path d="M56.66 48.986a1.565 1.565 0 0 0-1.819-.176l-2.825 1.694a2.544 2.544 0 0 1-3.848-2.18v-.15c0-.968.538-1.838 1.405-2.272l3.789-1.895-1.117-.357a7.816 7.816 0 0 0-4.07-.184l-5.122 1.139-2.043 7.15 2.33 1.398c.067-.09.133-.18.213-.26l1.333-1.333c.44-.441 1.05-.694 1.673-.694a2.366 2.366 0 0 1 2.36 2.285 2.362 2.362 0 0 1 2.275 2.275 2.362 2.362 0 0 1 2.276 2.276 2.36 2.36 0 0 1 2.037 1.326l1.693 1.411c.223.186.507.29.798.29a.792.792 0 0 0 .507-1.4l-3.995-3.328.972-1.167 4.12 3.434c.142.12.322.184.506.184h.166a.792.792 0 0 0 .507-1.399l-3.995-3.328.972-1.166 4.113 3.428c.146.122.333.19.522.19h.131a.816.816 0 0 0 .547-1.423z"/></g><g><path d="M62.774 46.308l-1.154-.03-4.767-1.36a3.301 3.301 0 0 0-2.365.218l-4.231 2.116c-.35.175-.567.526-.567.916v.15a1.025 1.025 0 0 0 1.55.88l2.825-1.695a3.047 3.047 0 0 1 3.616.348l6.408 5.768c.046.041.09.083.13.127L77 47.356V38.82z"/></g><g><path d="M55.548 61.03a2.35 2.35 0 0 1-.478.705l-.57.57.567.5c.145.128.33.198.523.198h.14a.792.792 0 0 0 .507-1.399z"/></g><g><path d="M53.394 59.21a.856.856 0 0 0-.602.249l-1.333 1.333a.851.851 0 0 0 1.203 1.203l1.334-1.333a.851.851 0 0 0-.602-1.452z"/></g><g><path d="M49.694 55.51a.851.851 0 0 0-1.452-.601l-1.333 1.333a.851.851 0 0 0 1.203 1.203l1.334-1.333a.856.856 0 0 0 .248-.602z"/></g><g><path d="M51.964 57.78a.851.851 0 0 0-1.452-.601l-1.333 1.333a.851.851 0 0 0 1.203 1.203l1.334-1.333a.856.856 0 0 0 .248-.602z"/></g><g><path d="M47.414 53.23a.851.851 0 0 0-1.452-.601l-1.333 1.333a.851.851 0 0 0 1.203 1.203l1.334-1.333a.856.856 0 0 0 .248-.602z"/></g></g></g></g></svg>