<svg xmlns="http://www.w3.org/2000/svg" width="110" height="94" viewBox="0 0 110 94"><g><g><g><path fill="#efefef" d="M0 0h110v74L55 94 0 74z"/></g><g><g/><g><g><g><path d="M76.682 18H71.32c-.728 0-1.318.59-1.318 1.318v1.319h-10.79C58.666 19.105 57.217 18 55.5 18c-1.716 0-3.166 1.105-3.712 2.637h-10.79v-1.319c0-.728-.59-1.318-1.318-1.318h-5.362C33.59 18 33 18.59 33 19.318v5.274c0 .729.59 1.318 1.318 1.318h5.362c.728 0 1.318-.59 1.318-1.318v-1.336h5.415c-4.576 2.858-7.593 7.878-7.953 13.501-1.582.518-2.735 1.99-2.735 3.743a3.96 3.96 0 0 0 3.955 3.955 3.96 3.96 0 0 0 3.955-3.955 3.952 3.952 0 0 0-2.544-3.683c.45-6.269 4.824-11.553 10.909-13.06.658 1.272 1.971 2.153 3.5 2.153s2.842-.88 3.5-2.153c6.085 1.507 10.459 6.79 10.909 13.06a3.953 3.953 0 0 0-2.544 3.683 3.96 3.96 0 0 0 3.955 3.955 3.96 3.96 0 0 0 3.955-3.955c0-1.752-1.153-3.225-2.735-3.743-.36-5.623-3.377-10.625-7.953-13.484h5.415v1.319c0 .728.59 1.318 1.318 1.318h5.362c.728 0 1.318-.59 1.318-1.318v-5.274C78 18.59 77.41 18 76.682 18z"/></g></g></g><g><g><g><path d="M64.466 61.366c-.69-2.11-2.676-3.726-5.014-3.726h-7.91c-2.338 0-4.325 1.616-5.014 3.726-.266.814.426 1.635 1.282 1.635h15.374c.856 0 1.548-.821 1.282-1.635z"/></g></g></g><g><g><g><path d="M67.139 45.038L56.814 29.55v12.507c1.53.546 2.636 1.996 2.636 3.712a3.96 3.96 0 0 1-3.955 3.956 3.96 3.96 0 0 1-3.955-3.956c0-1.716 1.106-3.166 2.637-3.712V29.55L43.85 45.038c-.348.523-.279 1.22.165 1.664 2.42 2.42 3.968 5.538 4.565 8.882a7.849 7.849 0 0 1 2.96-.586h7.91c1.047 0 2.043.215 2.959.586.597-3.345 2.144-6.462 4.564-8.882.444-.445.514-1.141.165-1.664z"/></g></g></g><g><g><g><path d="M55.498 44.46a1.32 1.32 0 0 0 0 2.637 1.32 1.32 0 0 0 0-2.637z"/></g></g></g></g></g></g></svg>