<svg xmlns="http://www.w3.org/2000/svg" width="110" height="94" viewBox="0 0 110 94"><g><g><g><path fill="#efefef" d="M0 0h110v74L55 94 0 74z"/></g><g><g/><g><g><g><path d="M65.662 48.514a4.922 4.922 0 1 0 0-9.844 4.922 4.922 0 0 0 0 9.844z"/></g><g><path d="M75.052 32.313a1.23 1.23 0 1 1-.732 2.35c-3.439-1.07-5.705-3.506-7.76-6.065-1.18 1.47-2.44 2.911-3.952 4.07-2.248 1.721-4.738 2.559-7.61 2.559s-5.36-.838-7.61-2.56c-1.511-1.158-2.77-2.598-3.952-4.07-2.054 2.56-4.32 4.995-7.76 6.066a1.23 1.23 0 1 1-.731-2.35 9.194 9.194 0 0 0 1.596-.67v-10.06a9.202 9.202 0 0 0-1.596-.67 1.23 1.23 0 1 1 .732-2.35c3.438 1.071 5.705 3.507 7.76 6.066 1.18-1.471 2.44-2.912 3.952-4.07C49.637 18.837 52.126 18 54.999 18c2.871 0 5.36.837 7.609 2.56 1.512 1.157 2.771 2.598 3.952 4.069 2.055-2.559 4.321-4.995 7.76-6.065a1.23 1.23 0 1 1 .732 2.35 9.199 9.199 0 0 0-1.597.669v10.06c.502.268 1.03.494 1.597.67zM53.768 20.528a9.4 9.4 0 0 0-3.281.977v10.217a9.4 9.4 0 0 0 3.28.976zm2.46 12.17a9.4 9.4 0 0 0 3.282-.976V21.505a9.4 9.4 0 0 0-3.281-.977zm-17.226-2.85c1.022-.952 1.945-2.067 2.87-3.235-.925-1.168-1.848-2.283-2.87-3.235zm9.024.14v-6.75c-1.089.986-2.059 2.155-3.024 3.375.965 1.22 1.935 2.39 3.024 3.375zm13.945 0c1.089-.985 2.059-2.154 3.024-3.375-.965-1.22-1.936-2.39-3.024-3.375zm9.023-.14v-6.47c-1.021.952-1.945 2.067-2.869 3.235.924 1.168 1.848 2.283 2.87 3.236z"/></g></g><g><path d="M70.59 49.09a7.353 7.353 0 0 1-4.926 1.89 7.353 7.353 0 0 1-4.927-1.89 9.436 9.436 0 0 0-4.507 8.042v1.64c0 .68.55 1.23 1.23 1.23h16.407c.68 0 1.23-.55 1.23-1.23v-1.64a9.436 9.436 0 0 0-4.507-8.042z"/></g><g><path d="M44.332 48.514a4.922 4.922 0 1 0 0-9.844 4.922 4.922 0 0 0 0 9.844z"/></g><g><path d="M49.26 49.09a7.353 7.353 0 0 1-4.926 1.89 7.353 7.353 0 0 1-4.927-1.89 9.436 9.436 0 0 0-4.507 8.042v1.64c0 .68.55 1.23 1.23 1.23h16.407c.68 0 1.23-.55 1.23-1.23v-1.64a9.436 9.436 0 0 0-4.507-8.042z"/></g></g></g></g></g></svg>