<svg xmlns="http://www.w3.org/2000/svg" width="30" height="30" viewBox="0 0 30 30"><g><g><g/><g><path d="M30 15c0 8.283-6.717 15-15 15-8.283 0-15-6.717-15-15C0 6.717 6.717 0 15 0c8.283 0 15 6.717 15 15zm-5.704-.242a8.92 8.92 0 0 0-2.627-6.349 8.921 8.921 0 0 0-6.351-2.632c-4.948 0-8.976 4.026-8.978 8.974 0 1.582.413 3.126 1.198 4.487L6.265 23.89l4.759-1.248a8.973 8.973 0 0 0 4.29 1.092h.004c4.948 0 8.976-4.026 8.978-8.975z"/></g><g><path d="M20.6 9.478a7.414 7.414 0 0 1 2.184 5.277c-.002 4.113-3.35 7.46-7.462 7.46h-.003a7.451 7.451 0 0 1-3.798-1.04l-.272-.162-2.825.74.754-2.752-.177-.282a7.442 7.442 0 0 1-1.141-3.97c.002-4.113 3.35-7.459 7.465-7.459 1.993 0 3.867.778 5.275 2.188zm-.755 7.412c-.056-.094-.206-.15-.43-.262-.224-.112-1.327-.655-1.533-.73-.205-.075-.355-.112-.504.112-.15.225-.58.73-.71.88-.132.15-.262.168-.487.056-.224-.113-.947-.35-1.804-1.113-.666-.595-1.117-1.33-1.247-1.554-.131-.224-.002-.334.098-.457.237-.295.486-.618.56-.767.075-.15.038-.281-.018-.393-.056-.113-.505-1.216-.692-1.665-.182-.438-.367-.378-.504-.385a9.12 9.12 0 0 0-.43-.008.825.825 0 0 0-.599.28c-.205.225-.785.768-.785 1.871 0 1.104.804 2.17.916 2.32.113.15 1.582 2.415 3.832 3.386.536.231.953.37 1.28.473.537.17 1.026.146 1.412.088.431-.064 1.327-.542 1.514-1.066.187-.524.187-.973.13-1.066z"/></g></g></g></svg>